<svg xmlns="http://www.w3.org/2000/svg" width="500" height="500" xmlns:xlink="http://www.w3.org/1999/xlink"><symbol id="a" viewBox="-250.5 -250.36 501 501"><path fill="none" stroke="#C8C8C8" stroke-width="10" stroke-miterlimit="10" d="M141.83 99.3c5.5 0 10 4.5 10 10v22.8c0 5.5-4.5 10-10 10H-141.4c-5.5 0-10-4.5-10-10v-22.8c0-5.5 4.5-10 10-10h283.23z" stroke-linecap="round" stroke-linejoin="round"/><path fill="#666" d="M-135-92.7L0-170.64 135-92.7v200.54h-270z"/><path fill="#8C8C8C" d="M122.53 107.84V70.38h-245.06v38.52"/><path fill="#A5A5A5" d="M-122.53-129.9L0-200.64l122.53 70.74V70.38h-245.06z"/><path fill="#231F20" d="M-122.53 39.7H-135v10.75h12.47zM135 39.7h-12.47v10.75H135z" opacity=".25"/><path fill="#ccc" d="M124.4-128.82L0-200.64l-124.4 71.82L0-204.74z"/><path fill="#A5A5A5" d="M-122.53-129.9l43.44-26.58-26.9 26.9V70.37h-16.53V-129.9zM106 70.38v-201.72l-29.52-26.73 46.04 28.16V70.37H106zM-30.7 70.38L0 88.1 30.7 70.4v-253.3L0-200.63l-30.7 17.73z"/><path fill="#A5A5A5" d="M-106 68.4v39.44h-16.53v-39.5m245.06 0v39.5H106v-39.8" opacity=".25"/><path fill="none" stroke="#231F20" stroke-width="10" stroke-miterlimit="10" d="M74.36 56.48s2.84 0 6.32 0 6.32 4.5 6.32 10v22.8c0 5.5-4.5 10-10 10H-76.57c-5.5 0-10-4.5-10-10V66.5c0-5.5 2.8-10 6.2-10s6.18 0 6.18 0M46.83 142.1H14.26M-13.83 142.1H-46.4" stroke-linejoin="round" opacity=".25"/><path fill="none" stroke="#C8C8C8" stroke-width="10" stroke-miterlimit="10" d="M-30.7 142.1v-22.8M30.7 142.1v-22.8" stroke-linecap="round" stroke-linejoin="round"/><path fill="none" stroke="#C8C8C8" stroke-width="10" stroke-miterlimit="10" d="M-30.7 142.1l-19.73 28.05 19.72 11.4 19.7-11.4zM30.7 142.1L11 170.15l19.7 11.4 19.73-11.4z" stroke-linecap="round" stroke-linejoin="round"/><path fill="none" stroke="#C8C8C8" stroke-width="10" stroke-miterlimit="10" d="M74.36 76.48s2.84 0 6.32 0 6.32 4.5 6.32 10v22.8c0 5.5-4.5 10-10 10H-76.57c-5.5 0-10-4.5-10-10V86.5c0-5.5 2.8-10 6.2-10s6.18 0 6.18 0" stroke-linejoin="round"/></symbol><symbol id="b" viewBox="-250.5 -250.5 501 501"><path d="M67.5-131.67V36.36h-135v-168.03L0-170.64z" opacity=".25"/><path d="M73.62-109.75v217.6H-73.62v-217.6L0-152.25z"/><g fill="#fff"><path d="M-32.2-46.28v93.9h17.7v-93.9h-17.7zM14.5-46.28v93.9h17.7v-93.9H14.5z"/></g><path fill="#fff" d="M-73.62-89.75L0-132.25l73.62 42.5v-10L0-142.25l-73.62 42.5zM-73.62-69.75L0-112.25l73.62 42.5v-10L0-122.25l-73.62 42.5z"/></symbol><symbol viewBox="-251.5 -251.36 503 503"><path fill="none" stroke="#231F20" stroke-width="3" stroke-miterlimit="10" d="M250-249.86h-500v500h500zM-250 250.14l500-500M250 250.14l-500-500"/><path fill="none" stroke="#f00" stroke-width="10" stroke-miterlimit="10" d="M-173.2 99.36L0 199.36l173.2-100v-200L0-200.64l-173.2 100z"/></symbol><g><g><use width="501" height="501" x="-250.5" y="-250.36" xlink:href="#a" transform="matrix(1 0 0 -1 256.5 252.333)" overflow="visible"/><use width="501" height="501" x="-250.5" y="-250.5" xlink:href="#b" transform="matrix(1 0 0 -1 256.5 251.333)" overflow="visible"/></g></g></svg>