<svg xmlns="http://www.w3.org/2000/svg" xmlns:xlink="http://www.w3.org/1999/xlink" viewBox="0 0 500 500" id="Layer_1"><style id="style2">.st0,.st2{fill:none;stroke-miterlimit:10}.st0{stroke-width:10;stroke-linecap:round;stroke-linejoin:round;stroke:#c8c8c8}.st2{stroke:#231f20;stroke-opacity:0}.st3{fill:#9a7cf4}.st4{fill:#e4cfff}.st5{fill:#231f20;enable-background:new}.st5,.st6{opacity:.25}.st7,.st8{fill:none;stroke:#231f20;stroke-width:10;stroke-linejoin:round;stroke-miterlimit:10}.st8{stroke:#fff;stroke-linecap:round}.st11{fill:#fff}</style><symbol viewBox="-250.5 -250.5 501 501" id="League_x5F_Diamond_1_"><path id="path4" d="M141.8 99.2c5.5 0 10 4.5 10 10V132c0 5.5-4.5 10-10 10h-283.2c-5.5 0-10-4.5-10-10v-22.8c0-5.5 4.5-10 10-10h283.2z" class="st0"/><path id="path6" d="M173.2 59.2v-160L0-200.8l-173.2 100v160m0 0h48.8m248.8 0h48.8" stroke-width="10" stroke-linecap="round" stroke-linejoin="round" stroke="#e4cfff" fill="none" stroke-miterlimit="10"/><path id="path8" d="M-92.7-174.3l46.4-30m91.1 0l44.8 30" class="st0"/><path id="path10" d="M250-250h-500v500h500z" class="st2"/><path id="path12" d="M-135-202.9L0-169.4l135-33.5v310.6h-270z" class="st3"/><path id="path14" d="M122.5 107.7V70.2h-245v38.6" class="st3"/><path id="path16" d="M-122.5-130L0-200.8 122.5-130V70.2h-245z" class="st4"/><path id="path18" d="M-122.5 39.6H-135v10.7h12.5zm257.5 0h-12.5v10.7H135zM-122.5-150l60.1-34.7 24.9 5.5-85 49.1V-150zm160-29.1l24.9-5.5 60.1 34.7v19.9l-85-49.1zM-79-189l13.2 3.3 6.3-4.3-11-4.4zm156.3.5l-13.2 3.2-6.3-4.3 11-4.4z" class="st5"/><path id="path20" d="M-10.5 85.3L0 91.4l10.5-6.1v-280L0-200.8l-10.5 6.1zm51 0l10.4 6.1 10.5-6.1v-250.6l-10.5-6.1-10.4-6zm50-15.1l10.4 6.1 10.5-6.1v-207.1l-10.5-6-10.4-6.1zM-61.4 85.3l10.5 6.1 10.4-6.1v-262.7l-10.4 6-10.5 6.1zm-50-15.1l10.5 6.1 10.4-6.1V-149l-10.4 6.1-10.5 6z" class="st4"/><g id="g38"><g id="g24" class="st6"><path id="path22" d="M74.3 56.4h6.3c3.5 0 6.3 4.5 6.3 10v22.8c0 5.5-4.5 10-10 10H-76.6c-5.5 0-10-4.5-10-10V66.4c0-5.5 2.8-10 6.2-10h6.2" class="st7"/></g><g id="g28" class="st6"><path id="path26" d="M44.5 142h-89.3" class="st7"/></g><path id="path30" d="M0 142v-22.8" class="st8"/><path id="path32" stroke-miterlimit="10" stroke-linejoin="round" stroke-width="10" stroke="#fff" fill="none" d="M74.3 76.4h6.3c3.5 0 6.3 4.5 6.3 10v22.8c0 5.5-4.5 10-10 10H-76.6c-5.5 0-10-4.5-10-10V86.4c0-5.5 2.8-10 6.2-10h6.2"/><g id="g36"><path id="path34" d="M-.9 221.4h-28.8l-22.9-30.3L-1.7 142m-50.9 49.1H50.7M-1.7 142l-19.8 49.1m0 0L-9 221.4m8.1 0h28.7l22.9-30.3L-.2 142m0 0l19.8 49.1m0 0L7.1 221.4" class="st8"/></g></g><path id="path40" fill="#e4cfff" opacity=".25" d="M-106 68.3v39.4h-16.5V68.2m245 0v39.5H106V67.9"/><g id="g48"><path id="path42" d="M124.4-152.1v34L0-46.3l-124.4-71.8v-34L0-80.3z" class="st3"/><path id="path44" d="M-124.4-152.1L0-80.3l124.4-71.8L0-88.5z" class="st5"/><path id="path46" d="M-124.4-152.1L0-80.3l124.4-71.8L0-76.2z" class="st11"/></g><g id="g56"><path id="path50" d="M124.4-85.3v34L0 20.6l-124.4-71.9v-34L0-13.4z" class="st3"/><path id="path52" d="M-124.4-85.3L0-13.4l124.4-71.9L0-21.7z" class="st5"/><path id="path54" d="M-124.4-85.3L0-13.4l124.4-71.9L0-9.3z" class="st11"/></g><g id="g64"><path id="path58" d="M124.4-19.3v33.9L0 86.5l-124.4-71.9v-33.9L0 52.5z" class="st3"/><path id="path60" d="M-124.4-19.3L0 52.5l124.4-71.8L0 44.2z" class="st5"/><path id="path62" d="M-124.4-19.3L0 52.5l124.4-71.8L0 56.6z" class="st11"/></g><g id="g68"><path id="path66" d="M44.8-204.3v14.2c0 7.8-.3 14.2-.8 14.2s-10.7 5.7-22.9 12.8-32 7-44.2 0-22.4-12.8-22.7-12.8-.6-6.4-.6-14.2v-14.2" class="st0"/></g></symbol><symbol viewBox="-251.5 -251.5 503 503" id="base"><path id="path71" d="M250-250h-500v500h500zm-500 500l500-500m0 500l-500-500" fill="none" stroke="#231f20" stroke-width="3" stroke-miterlimit="10"/><path id="path73" d="M-173.2 99.2L0 199.2l173.2-100v-200L0-200.8l-173.2 100z" stroke-miterlimit="10" stroke-width="10" stroke="red" fill="none"/></symbol><g id="Compound"><g id="Rank_x5F_Platinum_x5F_1"><use overflow="visible" transform="matrix(1 0 0 -1 256.5 252.194)" y="-250.5" x="-250.5" id="XMLID_60_" height="501" width="501" xlink:href="#League_x5F_Diamond_1_"/><g id="Position_x5F_1"><path id="path80" d="M6.5.5h500v500H6.5z" class="st2"/><path id="path82" d="M324 412.3V214.1H189v198.2l67.5 39z" opacity=".25"/><path id="path84" d="M330.1 390.4V142.6H182.9v247.8l73.6 42.5z"/><path id="path86" d="M255.6 185.8l13.7 42.3h44.4l-35.9 26.1 13.7 42.2-35.9-26.1-36 26.1 13.8-42.2-36-26.1h44.5z" class="st4"/><path id="path88" d="M182.9 352.8l73.6 42.5 73.6-42.5v10l-73.6 42.5-73.6-42.5z" class="st11"/><path id="path90" d="M182.9 332.8l73.6 42.5 73.6-42.5v10l-73.6 42.5-73.6-42.5z" class="st11"/><path id="path92" d="M182.9 312.8l73.6 42.5 73.6-42.5v10l-73.6 42.5-73.6-42.5z" class="st11"/><path id="path94" d="M295.5 342.8l-39-22.5-39 22.5v-10l39-22.5 39 22.5z" class="st11"/></g></g></g></svg>